<svg width="1161" height="1066" viewBox="0 0 1161 1066" fill="none" xmlns="http://www.w3.org/2000/svg">
<path d="M1142.22 195.777H1053.93L330.536 0.46817C327.229 -0.439339 323.664 0.40331 321.071 2.60726L108.96 187.026V159.736C108.96 151.504 102.283 144.892 94.1146 144.892H74.9263C66.6934 144.892 60.0809 151.568 60.0809 159.736V195.712H19.3698C9.19213 195.712 0.894531 204.009 0.894531 214.186V271.165C0.894531 281.342 9.19213 289.639 19.3698 289.639H60.0809V325.616C60.0809 333.848 66.7582 340.46 74.9263 340.46H94.1146C102.348 340.46 108.96 333.783 108.96 325.616V289.639H244.187V1009.36H205.745C203.671 1009.36 201.856 1011.17 201.856 1013.25V1061.8C201.856 1063.87 203.671 1065.69 205.745 1065.69H449.946C452.02 1065.69 453.835 1063.87 453.835 1061.8V1013.25C453.835 1011.17 452.02 1009.36 449.946 1009.36H411.503V289.639H898.608L962.202 461.936C957.6 466.409 954.682 472.567 954.682 479.503C954.682 486.439 957.341 492.014 961.554 496.422L908.008 643.503H906.128C878.188 643.503 855.498 666.191 855.498 694.129V840.108C855.498 868.047 878.188 890.734 906.128 890.734H1052.12C1080.06 890.734 1102.75 868.047 1102.75 840.108V694.129C1102.75 666.191 1080.06 643.503 1052.12 643.503H1050.11L996.042 497.135C1000.64 492.662 1003.56 486.504 1003.56 479.568C1003.56 472.632 1000.97 467.057 996.69 462.649L1059.64 289.704H1142.1C1152.27 289.704 1160.57 281.407 1160.57 271.23V214.251C1160.57 204.074 1152.27 195.777 1142.1 195.777H1142.22ZM317.635 195.777H130.417L317.635 33.0088V195.777ZM338.185 23.8041L974.973 195.712H338.185V23.8041ZM391.019 991.857L270.571 890.799L391.019 790.455V991.857ZM264.802 423.691L385.184 524.036L264.802 624.38V423.756V423.691ZM264.802 668.2L385.184 768.545L264.802 868.889V668.265V668.2ZM264.802 912.903L371.96 1002.81H264.802V912.903ZM391.019 746.57L270.636 646.226L391.019 545.881V746.505V746.57ZM270.636 401.717L391.019 301.372V501.996L270.636 401.652V401.717ZM264.802 379.742V289.704H372.867L264.802 379.742ZM1067.87 731.92L963.758 836.024C960.517 840.043 955.59 842.507 950.274 842.507C944.958 842.507 940.421 840.303 937.18 836.543L890.569 789.936C883.827 783.195 883.827 772.24 890.569 765.498C897.311 758.757 908.267 758.757 915.009 765.498L950.21 800.696L1043.36 707.547C1050.11 700.806 1061.06 700.806 1067.8 707.547C1074.55 714.289 1074.55 725.244 1067.8 731.985L1067.87 731.92ZM929.984 643.503L978.798 509.451L1028.26 643.503H929.984ZM979.64 449.62L920.584 289.704H1037.85L979.64 449.62ZM1140.15 269.156H21.5096V216.39H1052.57H1140.09V269.156H1140.15Z" fill="#001A72"/>
</svg>
