<svg width="2444" height="627" viewBox="0 0 2444 627" fill="none" xmlns="http://www.w3.org/2000/svg">
<path d="M671.377 115.438H619.516L194.451 0.703041C192.506 0.184464 190.432 0.70312 188.876 1.99956L64.2151 110.382V94.371C64.2151 89.5742 60.3255 85.62 55.4636 85.62H44.1838C39.3867 85.62 35.4322 89.5093 35.4322 94.371V115.503H11.5114C5.5474 115.503 0.620605 120.364 0.620605 126.393V159.906C0.620605 165.87 5.48257 170.796 11.5114 170.796H35.4322V191.928C35.4322 196.725 39.3218 200.679 44.1838 200.679H55.4636C60.2607 200.679 64.2151 196.79 64.2151 191.928V170.796H143.692V593.695H121.068C119.836 593.695 118.799 594.797 118.799 595.964V624.486C118.799 625.717 119.901 626.754 121.068 626.754H264.593C265.825 626.754 266.862 625.653 266.862 624.486V595.964C266.862 594.732 265.76 593.695 264.593 593.695H242.033V170.796H528.241L565.581 272.048C562.858 274.641 561.173 278.336 561.173 282.355C561.173 286.374 562.729 289.68 565.192 292.273L533.751 378.681H532.649C516.248 378.681 502.894 391.969 502.894 408.434V494.258C502.894 510.658 516.183 524.012 532.649 524.012H618.479C634.88 524.012 648.234 510.723 648.234 494.258V408.434C648.234 392.034 634.945 378.681 618.479 378.681H617.312L585.547 292.662C588.27 290.069 589.956 286.374 589.956 282.355C589.956 278.336 588.4 275.03 585.936 272.437L622.952 170.796H671.377C677.341 170.796 682.268 165.935 682.268 159.906V126.393C682.268 120.429 677.406 115.503 671.377 115.503V115.438ZM186.801 115.438H76.7914L186.801 19.7607V115.438ZM198.859 14.4453L573.101 115.503H198.859V14.4453ZM229.911 583.324L159.121 523.947L229.911 464.959V583.324ZM155.75 249.361L226.475 308.284L155.75 367.207V249.296V249.361ZM155.75 393.071L226.475 451.994L155.75 510.917V393.006V393.071ZM155.75 536.846L218.761 589.676H155.75V536.846ZM229.911 439.159L159.185 380.236L229.911 321.313V439.224V439.159ZM159.185 236.461L229.911 177.538V295.449L159.185 236.526V236.461ZM155.75 223.561V170.666H219.215L155.75 223.561ZM627.62 430.538L566.424 491.73C564.544 494.064 561.626 495.555 558.515 495.555C555.403 495.555 552.745 494.258 550.8 492.054L523.444 464.699C519.489 460.745 519.489 454.328 523.444 450.309C527.398 446.355 533.816 446.355 537.835 450.309L558.515 470.987L613.293 416.212C617.247 412.258 623.665 412.258 627.684 416.212C631.639 420.167 631.639 426.584 627.684 430.603L627.62 430.538ZM546.652 378.551L575.37 299.792L604.477 378.551H546.716H546.652ZM575.823 264.658L541.141 170.666H610.052L575.823 264.658ZM670.146 158.545H12.8079V127.495H618.738H670.146V158.545Z" fill="#001A72"/>
<path d="M1043.09 421.917C1051.65 428.269 1062.73 431.38 1076.41 431.38C1088.53 431.38 1098.45 429.112 1105.97 424.509C1113.49 419.907 1117.32 413.749 1117.32 406.1C1117.32 399.683 1115.57 394.821 1112.13 391.58C1108.69 388.339 1104.03 386.07 1098.19 384.709C1092.36 383.348 1083.35 381.921 1071.23 380.43C1054.63 378.421 1040.89 375.763 1030.13 372.457C1019.36 369.152 1010.68 363.771 1004.07 356.446C997.453 349.121 994.212 339.268 994.212 326.887C994.212 315.219 997.518 304.848 1004.07 295.838C1010.61 286.827 1019.69 279.762 1031.23 274.835C1042.77 269.909 1055.86 267.381 1070.45 267.381C1094.5 267.381 1114.01 272.696 1129.05 283.392C1144.02 294.088 1152.19 309.062 1153.42 328.379H1114.33C1113.36 319.692 1109.02 312.562 1101.3 306.987C1093.59 301.412 1083.93 298.625 1072.26 298.625C1060.59 298.625 1051.19 300.829 1044 305.302C1036.8 309.775 1033.24 315.868 1033.24 323.517C1033.24 329.221 1035.05 333.499 1038.62 336.352C1042.18 339.204 1046.72 341.213 1052.17 342.315C1057.61 343.417 1066.43 344.714 1078.55 346.205C1094.95 347.955 1108.69 350.612 1119.84 354.178C1130.99 357.743 1139.94 363.447 1146.62 371.291C1153.3 379.134 1156.67 389.7 1156.67 403.118C1156.67 415.045 1153.17 425.482 1146.23 434.557C1139.29 443.632 1129.76 450.568 1117.58 455.365C1105.39 460.162 1091.78 462.625 1076.67 462.625C1051.13 462.625 1030.45 456.856 1014.7 445.317C998.944 433.779 990.841 417.833 990.322 397.479H1029.02C1029.74 407.396 1034.4 415.499 1042.96 421.852L1043.09 421.917Z" fill="#001A72"/>
<path d="M1236.21 279.762C1250.21 271.724 1266.29 267.64 1284.37 267.64C1302.46 267.64 1318.93 271.335 1332.93 278.79C1346.93 286.244 1357.95 296.745 1366.05 310.423C1374.16 324.1 1378.24 340.047 1378.5 358.391C1378.5 363.382 1378.11 368.438 1377.4 373.624H1233.81V375.828C1234.78 392.423 1240.03 405.581 1249.43 415.24C1258.83 424.898 1271.41 429.76 1287.03 429.76C1299.41 429.76 1309.85 426.843 1318.28 421.009C1326.71 415.175 1332.28 406.943 1335 396.247H1375.2C1371.69 415.564 1362.36 431.446 1347.13 443.891C1331.89 456.337 1312.83 462.495 1290.01 462.495C1270.18 462.495 1252.87 458.476 1238.09 450.438C1223.31 442.4 1211.9 431.056 1203.86 416.407C1195.82 401.757 1191.8 384.774 1191.8 365.457C1191.8 346.14 1195.69 328.702 1203.54 313.923C1211.38 299.144 1222.27 287.735 1236.27 279.697L1236.21 279.762ZM1321 311.784C1311.73 303.941 1300 300.051 1285.86 300.051C1272.7 300.051 1261.36 304.07 1251.83 312.173C1242.3 320.276 1236.79 330.971 1235.3 344.325H1337.6C1335.85 330.453 1330.34 319.563 1321.07 311.784H1321Z" fill="#001A72"/>
<path d="M1397.88 305.237V269.909H1431.01V216.69H1471.59V269.909H1517.36V305.237H1471.59V404.544C1471.59 411.999 1473.08 417.25 1476.06 420.361C1479.05 423.473 1484.1 425.028 1491.3 425.028H1521.83V460.356H1483.13C1465.04 460.356 1451.82 456.143 1443.52 447.716C1435.22 439.289 1431.08 426.26 1431.08 408.628V305.172H1397.95L1397.88 305.237Z" fill="#001A72"/>
<path d="M1723.38 460.421H1688.05L1683.57 436.242C1669.18 453.874 1649.6 462.625 1624.78 462.625C1602.48 462.625 1584.32 455.689 1570.45 441.817C1556.58 427.945 1549.64 405.581 1549.64 374.856V269.974H1589.83V370.772C1589.83 389.376 1593.53 403.507 1600.98 413.166C1608.44 422.824 1619.46 427.686 1634.11 427.686C1649.47 427.686 1661.53 422.046 1670.22 410.767C1678.91 399.488 1683.25 384.061 1683.25 364.42V269.909H1723.44V460.356L1723.38 460.421Z" fill="#001A72"/>
<path d="M1952.6 313.275C1960.32 328.054 1964.14 345.297 1964.14 365.197C1964.14 385.098 1960.32 401.628 1952.6 416.342C1944.89 431.057 1934.26 442.53 1920.58 450.568C1906.9 458.606 1891.41 462.625 1874.1 462.625C1859.97 462.625 1847.71 460.032 1837.28 454.782C1826.84 449.531 1818.54 442.53 1812.32 433.585V534.772H1772.13V269.909H1807.07L1811.93 298.171C1827.29 277.817 1848.04 267.64 1874.03 267.64C1891.41 267.64 1906.9 271.53 1920.51 279.373C1934.13 287.217 1944.82 298.495 1952.54 313.21L1952.6 313.275ZM1923.24 365.133C1923.24 346.269 1918.11 331.036 1907.81 319.368C1897.5 307.7 1884.08 301.866 1867.42 301.866C1850.76 301.866 1837.41 307.635 1827.23 319.174C1817.05 330.712 1811.99 345.751 1811.99 364.355C1811.99 382.959 1817.05 398.97 1827.23 410.832C1837.41 422.694 1850.76 428.658 1867.42 428.658C1884.08 428.658 1897.5 422.694 1907.81 410.832C1918.11 398.97 1923.24 383.672 1923.24 365.068V365.133Z" fill="#001A72"/>
<path d="M2005.82 338.361H2132.3V371.096H2005.82V338.361Z" fill="#001A72"/>
<path d="M2268.89 462.625C2250.02 462.625 2233.43 458.606 2219.04 450.568C2204.65 442.53 2193.56 431.057 2185.72 416.147C2177.87 401.238 2173.98 384.125 2173.98 364.809C2173.98 345.492 2177.94 328.443 2185.91 313.858C2193.89 299.274 2205.1 287.865 2219.56 279.827C2234.01 271.789 2250.87 267.705 2269.99 267.705C2293.78 267.705 2313.29 273.993 2328.4 286.503C2343.5 299.014 2352.97 316.062 2356.66 337.648H2315.37C2312.65 326.758 2307.2 318.072 2298.97 311.589C2290.74 305.107 2280.75 301.931 2268.82 301.931C2252.68 301.931 2239.72 307.765 2229.93 319.433C2220.14 331.101 2215.21 346.205 2215.21 364.809C2215.21 383.412 2220.14 398.97 2229.93 410.767C2239.72 422.565 2252.68 428.464 2268.82 428.464C2281.21 428.464 2291.51 425.158 2299.68 418.611C2307.85 412.064 2313.23 403.183 2315.69 392.034H2356.6C2352.9 414.138 2343.31 431.381 2327.95 443.956C2312.58 456.531 2292.87 462.755 2268.76 462.755L2268.89 462.625Z" fill="#001A72"/>
<path d="M2443.01 217.857C2443.01 224.793 2440.68 230.562 2435.95 235.164C2431.21 239.767 2425.38 242.036 2418.44 242.036C2411.51 242.036 2405.67 239.767 2400.94 235.164C2396.21 230.562 2393.87 224.793 2393.87 217.857C2393.87 210.921 2396.21 205.152 2400.94 200.549C2405.67 195.947 2411.51 193.678 2418.44 193.678C2425.38 193.678 2431.21 195.947 2435.95 200.549C2440.68 205.152 2443.01 210.921 2443.01 217.857ZM2438.54 269.909V460.356H2398.35V269.909H2438.54Z" fill="#001A72"/>
</svg>
