<svg width="2444" height="627" viewBox="0 0 2444 627" fill="none" xmlns="http://www.w3.org/2000/svg">
<path d="M671.377 115.438H619.516L194.451 0.702613C192.506 0.184037 190.432 0.702693 188.876 1.99913L64.2151 110.382V94.3706C64.2151 89.5737 60.3255 85.6195 55.4636 85.6195H44.1838C39.3867 85.6195 35.4322 89.5089 35.4322 94.3706V115.502H11.5114C5.5474 115.502 0.620605 120.364 0.620605 126.392V159.906C0.620605 165.869 5.48257 170.796 11.5114 170.796H35.4322V191.927C35.4322 196.724 39.3218 200.679 44.1838 200.679H55.4636C60.2607 200.679 64.2151 196.789 64.2151 191.927V170.796H143.692V593.695H121.068C119.836 593.695 118.799 594.797 118.799 595.964V624.485C118.799 625.717 119.901 626.754 121.068 626.754H264.593C265.825 626.754 266.862 625.652 266.862 624.485V595.964C266.862 594.732 265.76 593.695 264.593 593.695H242.033V170.796H528.241L565.581 272.048C562.858 274.641 561.173 278.335 561.173 282.354C561.173 286.373 562.729 289.679 565.192 292.272L533.751 378.68H532.649C516.248 378.68 502.894 391.969 502.894 408.433V494.258C502.894 510.658 516.183 524.011 532.649 524.011H618.479C634.88 524.011 648.234 510.722 648.234 494.258V408.433C648.234 392.033 634.945 378.68 618.479 378.68H617.312L585.547 292.661C588.27 290.068 589.956 286.373 589.956 282.354C589.956 278.335 588.4 275.03 585.936 272.437L622.952 170.796H671.377C677.341 170.796 682.268 165.934 682.268 159.906V126.392C682.268 120.429 677.406 115.502 671.377 115.502V115.438ZM186.801 115.438H76.7914L186.801 19.7603V115.438ZM198.859 14.4449L573.101 115.502H198.859V14.4449ZM229.911 583.323L159.121 523.946L229.911 464.958V583.323ZM155.75 249.36L226.475 308.283L155.75 367.207V249.295V249.36ZM155.75 393.071L226.475 451.994L155.75 510.917V393.006V393.071ZM155.75 536.846L218.761 589.676H155.75V536.846ZM229.911 439.159L159.185 380.236L229.911 321.312V439.224V439.159ZM159.185 236.461L229.911 177.537V295.449L159.185 236.525V236.461ZM155.75 223.561V170.666H219.215L155.75 223.561ZM627.62 430.538L566.424 491.73C564.544 494.063 561.626 495.554 558.515 495.554C555.403 495.554 552.745 494.258 550.8 492.054L523.444 464.699C519.489 460.745 519.489 454.327 523.444 450.309C527.398 446.354 533.816 446.354 537.835 450.309L558.515 470.987L613.293 416.212C617.247 412.258 623.665 412.258 627.684 416.212C631.639 420.166 631.639 426.583 627.684 430.602L627.62 430.538ZM546.652 378.55L575.37 299.792L604.477 378.55H546.716H546.652ZM575.823 264.658L541.141 170.666H610.052L575.823 264.658ZM670.146 158.544H12.8079V127.495H618.738H670.146V158.544Z" fill="#E1F3FA"/>
<path d="M1043.09 421.917C1051.65 428.269 1062.73 431.381 1076.41 431.381C1088.53 431.381 1098.45 429.112 1105.97 424.509C1113.49 419.907 1117.32 413.749 1117.32 406.1C1117.32 399.683 1115.57 394.821 1112.13 391.58C1108.69 388.339 1104.03 386.07 1098.19 384.709C1092.36 383.348 1083.35 381.921 1071.23 380.431C1054.63 378.421 1040.89 375.763 1030.13 372.458C1019.36 369.152 1010.68 363.771 1004.07 356.446C997.453 349.121 994.212 339.268 994.212 326.887C994.212 315.219 997.518 304.848 1004.07 295.838C1010.61 286.828 1019.69 279.762 1031.23 274.836C1042.77 269.909 1055.86 267.381 1070.45 267.381C1094.5 267.381 1114.01 272.696 1129.05 283.392C1144.02 294.088 1152.19 309.062 1153.42 328.379H1114.33C1113.36 319.692 1109.02 312.562 1101.3 306.987C1093.59 301.412 1083.93 298.625 1072.26 298.625C1060.59 298.625 1051.19 300.829 1044 305.302C1036.8 309.775 1033.24 315.868 1033.24 323.517C1033.24 329.221 1035.05 333.499 1038.62 336.352C1042.18 339.204 1046.72 341.213 1052.17 342.315C1057.61 343.417 1066.43 344.714 1078.55 346.205C1094.95 347.955 1108.69 350.612 1119.84 354.178C1130.99 357.743 1139.94 363.447 1146.62 371.291C1153.3 379.134 1156.67 389.7 1156.67 403.118C1156.67 415.046 1153.17 425.482 1146.23 434.557C1139.29 443.632 1129.76 450.568 1117.58 455.365C1105.39 460.162 1091.78 462.625 1076.67 462.625C1051.13 462.625 1030.45 456.856 1014.7 445.317C998.944 433.779 990.841 417.833 990.322 397.479H1029.02C1029.74 407.397 1034.4 415.499 1042.96 421.852L1043.09 421.917Z" fill="#E1F3FA"/>
<path d="M1236.21 279.761C1250.21 271.723 1266.29 267.64 1284.37 267.64C1302.46 267.64 1318.93 271.334 1332.93 278.789C1346.93 286.243 1357.95 296.745 1366.05 310.422C1374.16 324.1 1378.24 340.046 1378.5 358.391C1378.5 363.382 1378.11 368.438 1377.4 373.624H1233.81V375.828C1234.78 392.422 1240.03 405.581 1249.43 415.239C1258.83 424.898 1271.41 429.759 1287.03 429.759C1299.41 429.759 1309.85 426.842 1318.28 421.008C1326.71 415.174 1332.28 406.942 1335 396.246H1375.2C1371.69 415.563 1362.36 431.445 1347.13 443.891C1331.89 456.337 1312.83 462.495 1290.01 462.495C1270.18 462.495 1252.87 458.475 1238.09 450.438C1223.31 442.4 1211.9 431.056 1203.86 416.406C1195.82 401.756 1191.8 384.773 1191.8 365.456C1191.8 346.139 1195.69 328.702 1203.54 313.922C1211.38 299.143 1222.27 287.734 1236.27 279.696L1236.21 279.761ZM1321 311.783C1311.73 303.94 1300 300.051 1285.86 300.051C1272.7 300.051 1261.36 304.07 1251.83 312.172C1242.3 320.275 1236.79 330.971 1235.3 344.324H1337.6C1335.85 330.452 1330.34 319.562 1321.07 311.783H1321Z" fill="#E1F3FA"/>
<path d="M1397.88 305.237V269.909H1431.01V216.689H1471.59V269.909H1517.36V305.237H1471.59V404.544C1471.59 411.999 1473.08 417.249 1476.06 420.361C1479.05 423.472 1484.1 425.028 1491.3 425.028H1521.83V460.356H1483.13C1465.04 460.356 1451.82 456.142 1443.52 447.715C1435.22 439.288 1431.08 426.259 1431.08 408.628V305.172H1397.95L1397.88 305.237Z" fill="#E1F3FA"/>
<path d="M1723.38 460.42H1688.05L1683.57 436.241C1669.18 453.873 1649.6 462.624 1624.78 462.624C1602.48 462.624 1584.32 455.688 1570.45 441.816C1556.58 427.945 1549.64 405.581 1549.64 374.855V269.973H1589.83V370.771C1589.83 389.375 1593.53 403.506 1600.98 413.165C1608.44 422.823 1619.46 427.685 1634.11 427.685C1649.47 427.685 1661.53 422.045 1670.22 410.766C1678.91 399.487 1683.25 384.06 1683.25 364.419V269.908H1723.44V460.355L1723.38 460.42Z" fill="#E1F3FA"/>
<path d="M1952.6 313.274C1960.32 328.054 1964.14 345.296 1964.14 365.197C1964.14 385.097 1960.32 401.627 1952.6 416.341C1944.89 431.056 1934.26 442.529 1920.58 450.567C1906.9 458.605 1891.41 462.624 1874.1 462.624C1859.97 462.624 1847.71 460.031 1837.28 454.781C1826.84 449.53 1818.54 442.529 1812.32 433.584V534.771H1772.13V269.908H1807.07L1811.93 298.171C1827.29 277.816 1848.04 267.64 1874.03 267.64C1891.41 267.64 1906.9 271.529 1920.51 279.372C1934.13 287.216 1944.82 298.495 1952.54 313.209L1952.6 313.274ZM1923.24 365.132C1923.24 346.269 1918.11 331.035 1907.81 319.368C1897.5 307.7 1884.08 301.865 1867.42 301.865C1850.76 301.865 1837.41 307.635 1827.23 319.173C1817.05 330.711 1811.99 345.75 1811.99 364.354C1811.99 382.958 1817.05 398.969 1827.23 410.831C1837.41 422.694 1850.76 428.657 1867.42 428.657C1884.08 428.657 1897.5 422.694 1907.81 410.831C1918.11 398.969 1923.24 383.671 1923.24 365.067V365.132Z" fill="#E1F3FA"/>
<path d="M2005.82 338.36H2132.3V371.095H2005.82V338.36Z" fill="#E1F3FA"/>
<path d="M2268.89 462.624C2250.02 462.624 2233.43 458.605 2219.04 450.567C2204.65 442.529 2193.56 431.056 2185.72 416.147C2177.87 401.238 2173.98 384.125 2173.98 364.808C2173.98 345.491 2177.94 328.443 2185.91 313.858C2193.89 299.273 2205.1 287.864 2219.56 279.826C2234.01 271.788 2250.87 267.704 2269.99 267.704C2293.78 267.704 2313.29 273.992 2328.4 286.503C2343.5 299.013 2352.97 316.062 2356.66 337.647H2315.37C2312.65 326.757 2307.2 318.071 2298.97 311.589C2290.74 305.107 2280.75 301.93 2268.82 301.93C2252.68 301.93 2239.72 307.764 2229.93 319.432C2220.14 331.1 2215.21 346.204 2215.21 364.808C2215.21 383.412 2220.14 398.969 2229.93 410.766C2239.72 422.564 2252.68 428.463 2268.82 428.463C2281.21 428.463 2291.51 425.157 2299.68 418.61C2307.85 412.063 2313.23 403.183 2315.69 392.033H2356.6C2352.9 414.137 2343.31 431.38 2327.95 443.955C2312.58 456.531 2292.87 462.754 2268.76 462.754L2268.89 462.624Z" fill="#E1F3FA"/>
<path d="M2443.01 217.856C2443.01 224.792 2440.68 230.562 2435.95 235.164C2431.21 239.766 2425.38 242.035 2418.44 242.035C2411.51 242.035 2405.67 239.766 2400.94 235.164C2396.21 230.562 2393.87 224.792 2393.87 217.856C2393.87 210.92 2396.21 205.151 2400.94 200.549C2405.67 195.946 2411.51 193.678 2418.44 193.678C2425.38 193.678 2431.21 195.946 2435.95 200.549C2440.68 205.151 2443.01 210.92 2443.01 217.856ZM2438.54 269.909V460.356H2398.35V269.909H2438.54Z" fill="#E1F3FA"/>
</svg>
